HIERARCHY
ROOT joint_Root
{
	OFFSET 0.0 0.0 0.0
	CHANNELS 6 Xposition Yposition Zposition Zrotation Xrotation Yrotation 
	JOINT Hips
	{
		OFFSET 4.5925 91.4895 -427.239
		CHANNELS 6 Xposition Yposition Zposition Zrotation Xrotation Yrotation 
		JOINT Spine
		{
			OFFSET 15.7357 0.0 0.0
			CHANNELS 6 Xposition Yposition Zposition Zrotation Xrotation Yrotation 
			JOINT Chest
			{
				OFFSET 8.98455 -0.406207 0.0
				CHANNELS 6 Xposition Yposition Zposition Zrotation Xrotation Yrotation 
				JOINT Neck
				{
					OFFSET 16.3773 0.0 0.0
					CHANNELS 6 Xposition Yposition Zposition Zrotation Xrotation Yrotation 
					JOINT Head
					{
						OFFSET 6.45672 0.0 0.0
						CHANNELS 6 Xposition Yposition Zposition Zrotation Xrotation Yrotation 
						End Site
						{
							OFFSET 0.0 0.0 0.0
						}
					}
				}
				JOINT Shoulder_L
				{
					OFFSET 12.9942 -0.242716 4.98039
					CHANNELS 6 Xposition Yposition Zposition Zrotation Xrotation Yrotation 
					JOINT UpperArm_L
					{
						OFFSET 5.34809 0.0 0.0
						CHANNELS 6 Xposition Yposition Zposition Zrotation Xrotation Yrotation 
						JOINT LowerArm_L
						{
							OFFSET 24.3286 1.87007e-05 0.0
							CHANNELS 6 Xposition Yposition Zposition Zrotation Xrotation Yrotation 
							JOINT Hand_L
							{
								OFFSET 22.2916 0.0 0.0
								CHANNELS 6 Xposition Yposition Zposition Zrotation Xrotation Yrotation 
								End Site
								{
									OFFSET 0.0 0.0 0.0
								}
							}
						}
					}
				}
				JOINT Shoulder_R
				{
					OFFSET 12.9945 -0.242716 -4.98039
					CHANNELS 6 Xposition Yposition Zposition Zrotation Xrotation Yrotation 
					JOINT UpperArm_R
					{
						OFFSET -5.34813 0.0 0.0
						CHANNELS 6 Xposition Yposition Zposition Zrotation Xrotation Yrotation 
						JOINT LowerArm_R
						{
							OFFSET -24.3289 0.000322201 0.0
							CHANNELS 6 Xposition Yposition Zposition Zrotation Xrotation Yrotation 
							JOINT Hand_R
							{
								OFFSET -22.2915 -0.000108084 0.0
								CHANNELS 6 Xposition Yposition Zposition Zrotation Xrotation Yrotation 
								End Site
								{
									OFFSET 0.0 0.0 0.0
								}
							}
						}
					}
				}
			}
		}
		JOINT UpperLeg_L
		{
			OFFSET -2.19248 -6.46944 0.0
			CHANNELS 6 Xposition Yposition Zposition Zrotation Xrotation Yrotation 
			JOINT LowerLeg_L
			{
				OFFSET 39.0811 0.0 -1.23785e-05
				CHANNELS 6 Xposition Yposition Zposition Zrotation Xrotation Yrotation 
				JOINT Foot_L
				{
					OFFSET 40.9854 0.0 -1.26872e-05
					CHANNELS 6 Xposition Yposition Zposition Zrotation Xrotation Yrotation 
					JOINT Toes_L
					{
						OFFSET 11.7543 0.0 0.0
						CHANNELS 6 Xposition Yposition Zposition Zrotation Xrotation Yrotation 
						End Site
						{
							OFFSET 0.0 0.0 0.0
						}
					}
				}
			}
		}
		JOINT UpperLeg_R
		{
			OFFSET -2.19251 6.46944 0.0
			CHANNELS 6 Xposition Yposition Zposition Zrotation Xrotation Yrotation 
			JOINT LowerLeg_R
			{
				OFFSET -39.0811 -0.00228153 -0.0401928
				CHANNELS 6 Xposition Yposition Zposition Zrotation Xrotation Yrotation 
				JOINT Foot_R
				{
					OFFSET -40.9854 0.0 0.0
					CHANNELS 6 Xposition Yposition Zposition Zrotation Xrotation Yrotation 
					JOINT Toes_R
					{
						OFFSET -11.7543 0.0 0.0
						CHANNELS 6 Xposition Yposition Zposition Zrotation Xrotation Yrotation 
						End Site
						{
							OFFSET 0.0 0.0 0.0
						}
					}
				}
			}
		}
	}
}
MOTION
Frames:	6
Frame Time:	0.0333333
0.000000 0.000000 0.000000 0.000000 0.000000 -0.000000 -3.082330 80.369300 0.933081 86.332300 6.231170 11.596700 15.735700 0.000005 -0.000001 97.012700 80.649600 -99.560100 8.984550 -0.406207 -0.000000 10.855000 2.197960 -5.301390 16.377300 -0.000001 -0.000001 -4.556510 -9.701660 2.785830 6.456720 -0.000001 -0.000000 -3.089610 -16.699600 14.030400 12.994200 -0.242716 4.980390 -91.987200 5.226690 -69.149200 5.348090 -0.000007 -0.000001 -69.767300 16.220000 -5.705260 24.328600 0.000019 0.000005 1.129350 2.681800 -22.793600 22.291600 -0.000001 0.000005 19.650600 5.094840 5.230760 12.994500 -0.242716 -4.980390 88.828100 6.392920 -79.590100 -5.348130 -0.000001 -0.000004 -71.049300 29.114300 0.783526 -24.328900 0.000322 -0.000009 -2.213750 -3.871420 -29.775200 -22.291500 -0.000108 -0.000004 21.207500 5.450840 -4.668600 -2.192480 -6.469440 -0.000000 -169.205000 -7.789400 -17.426700 39.081100 -0.000007 -0.000012 -0.399708 0.166509 67.385600 40.985400 -0.000006 -0.000013 2.572450 10.123800 -89.035700 11.754300 -0.000000 0.000003 -0.000391 -0.003249 -16.697400 -2.192510 6.469440 -0.000001 -179.848000 19.549500 165.777000 -39.081100 -0.002282 -0.040193 0.143749 -0.062696 65.965900 -40.985400 0.000008 0.000006 5.901850 -1.047860 -88.853300 -11.754300 -0.000006 -0.000006 -1.340190 -1.663620 -17.266000
0.000000 0.000000 0.000000 0.000000 0.000000 -0.000000 -2.109760 82.222900 1.349350 87.364500 2.373450 10.875100 15.735700 0.000005 -0.000001 96.522200 81.615100 -98.525700 8.984550 -0.406207 -0.000000 8.934880 1.874570 -4.150360 16.377300 -0.000001 -0.000001 -4.983990 -8.566050 2.800220 6.456720 -0.000001 -0.000000 -2.790410 -14.535300 12.667700 12.994200 -0.242716 4.980390 -91.719500 4.446820 -68.833700 5.348090 -0.000007 -0.000001 -70.375000 14.173100 -2.757240 24.328600 0.000019 0.000005 0.408694 1.228520 -18.491700 22.291600 -0.000001 0.000005 17.990200 5.056200 6.103230 12.994500 -0.242716 -4.980390 88.892800 6.119170 -79.723100 -5.348130 -0.000001 -0.000004 -70.868200 29.712100 0.131051 -24.328900 0.000322 -0.000009 -1.110690 -2.097370 -27.884200 -22.291500 -0.000108 -0.000004 19.668700 5.438960 -4.248650 -2.192480 -6.469440 -0.000000 -170.629000 -10.607700 -14.059200 39.081100 -0.000007 -0.000012 -0.385887 0.204623 62.065500 40.985400 -0.000006 -0.000013 2.213010 8.683930 -87.137100 11.754300 -0.000000 0.000003 -0.000357 -0.003008 -16.689000 -2.192510 6.469440 -0.000001 178.738000 16.976800 167.463000 -39.081100 -0.002282 -0.040193 0.107890 -0.057166 61.365100 -40.985400 0.000008 0.000006 6.059420 1.098240 -86.477500 -11.754300 -0.000006 -0.000006 -1.312000 -1.628480 -17.239400
0.000000 0.000000 0.000000 0.000000 0.000000 -0.000000 -1.108460 84.729600 1.889240 88.347500 -1.800350 9.556300 15.735700 0.000005 -0.000001 97.371200 82.991100 -98.424000 8.984550 -0.406207 -0.000000 6.155870 1.808240 -2.200620 16.377300 -0.000001 -0.000001 -4.249190 -7.148970 2.457810 6.456720 -0.000001 -0.000000 -2.476820 -11.921700 9.832590 12.994200 -0.242716 4.980390 -91.152200 2.876300 -68.156800 5.348090 -0.000007 -0.000001 -67.150300 9.802060 -3.205970 24.328600 0.000019 0.000005 2.508710 9.100400 -15.492300 22.291600 -0.000001 0.000005 13.720300 5.056580 6.090490 12.994500 -0.242716 -4.980390 88.965500 5.523620 -79.374800 -5.348130 -0.000001 -0.000004 -70.767400 29.032700 1.001950 -24.328900 0.000322 -0.000009 -0.635597 -1.203110 -27.810300 -22.291500 -0.000108 -0.000004 18.504600 5.433450 -4.058250 -2.192480 -6.469440 -0.000000 -172.440000 -13.038200 -10.262600 39.081100 -0.000007 -0.000012 -0.335961 0.242280 54.203400 40.985400 -0.000006 -0.000013 1.441410 6.585440 -83.972400 11.754300 -0.000000 0.000003 -0.000292 -0.002543 -16.672400 -2.192510 6.469440 -0.000001 177.097000 15.529900 169.535000 -39.081100 -0.002282 -0.040193 0.071628 -0.048869 54.455000 -40.985400 0.000008 0.000006 6.489820 4.826650 -82.865400 -11.754300 -0.000006 -0.000006 -1.136700 -1.396690 -17.528000
0.000000 0.000000 0.000000 0.000000 0.000000 -0.000000 -0.237511 87.279600 2.458080 89.164100 -5.997360 7.950590 15.735700 0.000005 -0.000001 100.818000 84.413400 -100.663000 8.984550 -0.406207 -0.000000 3.207730 2.088670 0.251259 16.377300 -0.000001 -0.000001 -2.775690 -5.812150 1.852910 6.456720 -0.000001 -0.000000 -1.897050 -8.901110 6.056330 12.994200 -0.242716 4.980390 -90.397700 0.974588 -67.803300 5.348090 -0.000007 -0.000001 -59.821000 0.546965 -6.169630 24.328600 0.000019 0.000005 3.200330 11.628400 -15.509500 22.291600 -0.000001 0.000005 11.867700 5.036450 6.532040 12.994500 -0.242716 -4.980390 89.047900 4.643920 -78.398800 -5.348130 -0.000001 -0.000004 -70.252800 28.160300 2.209450 -24.328900 0.000322 -0.000009 -0.859146 -1.564380 -28.747100 -22.291500 -0.000108 -0.000004 17.953500 5.432480 -4.024940 -2.192480 -6.469440 -0.000000 -174.259000 -15.079700 -6.366370 39.081100 -0.000007 -0.000012 -0.299933 0.300973 44.901500 40.985400 -0.000006 -0.000013 0.628921 4.254040 -80.049000 11.754300 -0.000000 0.000003 -0.000225 -0.002043 -16.654400 -2.192510 6.469440 -0.000001 175.587000 15.075300 171.559000 -39.081100 -0.002282 -0.040193 0.040781 -0.035534 46.558700 -40.985400 0.000008 0.000006 6.551740 9.505060 -78.309000 -11.754300 -0.000006 -0.000006 -1.125300 -1.366220 -18.120500
0.000000 0.000000 0.000000 0.000000 0.000000 -0.000000 0.295321 89.248700 2.693590 89.450800 -9.271450 5.763720 15.735700 0.000005 -0.000001 103.634000 85.781100 -102.287000 8.984550 -0.406207 -0.000000 0.413557 1.901960 2.684200 16.377300 -0.000001 -0.000001 -1.102680 -4.462700 1.737880 6.456720 -0.000001 -0.000000 -1.306670 -6.200510 2.471380 12.994200 -0.242716 4.980390 -89.801200 -0.488485 -67.853800 5.348090 -0.000007 -0.000001 -49.570800 -14.523200 -10.042100 24.328600 0.000019 0.000005 1.720440 4.533690 -20.895200 22.291600 -0.000001 0.000005 13.609200 5.036800 6.539260 12.994500 -0.242716 -4.980390 89.067000 4.089970 -77.137500 -5.348130 -0.000001 -0.000004 -68.873900 27.849100 2.596570 -24.328900 0.000322 -0.000009 -1.290940 -2.235130 -29.996400 -22.291500 -0.000108 -0.000004 17.368000 5.438750 -4.242530 -2.192480 -6.469440 -0.000000 -175.648000 -16.467900 -4.051480 39.081100 -0.000007 -0.000012 -0.227627 0.307691 36.494100 40.985400 -0.000006 -0.000013 0.051887 2.342980 -76.214700 11.754300 -0.000000 0.000003 -0.000157 -0.001510 -16.634900 -2.192510 6.469440 -0.000001 175.093000 15.531100 172.503000 -39.081100 -0.002282 -0.040193 0.021608 -0.022372 39.325700 -40.985400 0.000008 0.000006 6.321880 13.701600 -74.112900 -11.754300 -0.000006 -0.000006 -0.920042 -1.107050 -18.684700
0.000000 0.000000 0.000000 0.000000 0.000000 -0.000000 0.534423 90.413400 2.805400 89.751400 -11.452500 4.515960 15.735700 0.000005 -0.000001 104.365000 86.559200 -102.253000 8.984550 -0.406207 -0.000000 -1.124620 1.543210 4.237870 16.377300 -0.000001 -0.000001 0.191554 -3.483150 2.357700 6.456720 -0.000001 -0.000000 -0.839014 -4.271650 0.397337 12.994200 -0.242716 4.980390 -89.149800 -2.138490 -68.305300 5.348090 -0.000007 -0.000001 -38.091300 -28.828100 -15.844700 24.328600 0.000019 0.000005 -1.607340 -2.776910 -29.985800 22.291600 -0.000001 0.000005 17.912200 5.183370 3.166050 12.994500 -0.242716 -4.980390 88.834200 4.630190 -75.852200 -5.348130 -0.000001 -0.000004 -66.076000 27.883700 2.639340 -24.328900 0.000322 -0.000009 -1.779700 -2.861040 -31.885100 -22.291500 -0.000108 -0.000004 16.949300 5.440300 -4.296500 -2.192480 -6.469440 -0.000000 -176.929000 -16.702500 -2.318320 39.081100 -0.000007 -0.000012 -0.048308 0.081489 30.660600 40.985400 -0.000006 -0.000013 1.266430 0.301656 -73.622900 11.754300 -0.000000 0.000003 -0.952037 -1.218740 -15.830900 -2.192510 6.469440 -0.000001 174.717000 16.549500 173.677000 -39.081100 -0.002282 -0.040193 0.011236 -0.011784 33.982000 -40.985400 0.000008 0.000006 6.576690 16.695900 -72.000900 -11.754300 -0.000006 -0.000006 -0.561302 -0.687328 -18.491500
